<svg width="56" height="31" viewBox="0 0 56 31" fill="none" xmlns="http://www.w3.org/2000/svg">
<g clip-path="url(#clip0_1310_530)">
<path fill-rule="evenodd" clip-rule="evenodd" d="M0 0H56V31H0V0Z" fill="white"/>
<path fill-rule="evenodd" clip-rule="evenodd" d="M2.46474 28.5785H2.30466C2.30466 28.5343 2.26457 28.4677 2.26457 28.4453C2.26457 28.4233 2.26457 28.3791 2.14429 28.3791H1.90374V28.5785H1.78346V28.1128H2.14429C2.30466 28.1128 2.42465 28.1351 2.42465 28.2236C2.42465 28.2902 2.38456 28.3125 2.34475 28.3344C2.38485 28.3567 2.42465 28.3789 2.42465 28.4233V28.5119C2.42465 28.5343 2.42465 28.5343 2.46474 28.5343V28.5785ZM2.30466 28.2459C2.30466 28.1793 2.22448 28.1793 2.18439 28.1793H1.90374V28.3125H2.14429C2.22448 28.3125 2.30466 28.2902 2.30466 28.2459V28.2459ZM2.98594 28.3345C2.98594 28.0685 2.58531 27.8464 2.06411 27.8464C1.58329 27.8464 1.18237 28.0685 1.18237 28.3345C1.18237 28.6229 1.58329 28.845 2.06411 28.845C2.58502 28.8448 2.98594 28.6229 2.98594 28.3345ZM2.86566 28.3345C2.86566 28.5787 2.50512 28.7561 2.06411 28.7561C1.6231 28.7561 1.30265 28.5785 1.30265 28.3345C1.30265 28.1128 1.62339 27.913 2.06411 27.913C2.50483 27.913 2.86566 28.1128 2.86566 28.3345ZM52.2412 19.3716C52.2412 20.0373 51.4797 20.3475 50.1169 20.3475H47.5123V19.6818H50.1169C50.3574 19.6818 50.5579 19.6598 50.6383 19.6156C50.7182 19.571 50.7984 19.5044 50.7984 19.4158C50.7984 19.3269 50.7185 19.2383 50.6383 19.194C50.5579 19.1495 50.3978 19.1275 50.1572 19.1275C48.9153 19.1051 47.352 19.1495 47.352 18.1735C47.352 17.7296 47.8729 17.2415 49.2755 17.2415H51.9605V17.9071H49.4757C49.2357 17.9071 49.075 17.9071 48.9548 17.9514C48.8345 18.0179 48.7546 18.0845 48.7546 18.1955C48.7546 18.3065 48.8749 18.373 49.035 18.4176C49.1956 18.4396 49.356 18.4618 49.5564 18.4618H50.2775C51.039 18.4618 51.5201 18.5504 51.8408 18.7059C52.0808 18.8611 52.2412 19.061 52.2412 19.3716V19.3716ZM46.5902 18.7059C46.2695 18.5504 45.7884 18.4618 45.0269 18.4618H44.3058C44.1057 18.4618 43.945 18.4395 43.7849 18.4176C43.6243 18.373 43.5046 18.3065 43.5046 18.1955C43.5046 18.0845 43.5444 18.0179 43.7047 17.9514C43.825 17.9071 43.9851 17.9071 44.2256 17.9071H46.7105V17.2415H44.0255C42.5824 17.2415 42.1013 17.7296 42.1013 18.1735C42.1013 19.1493 43.6646 19.1051 44.9072 19.1275C45.1472 19.1275 45.3078 19.1495 45.3877 19.194C45.4676 19.2383 45.5484 19.3269 45.5484 19.4158C45.5484 19.5044 45.4679 19.571 45.3877 19.6156C45.2675 19.6598 45.1074 19.6818 44.8668 19.6818H42.2617V20.3475H44.8668C46.2291 20.3475 46.9908 20.0371 46.9908 19.3716C46.9908 19.061 46.8308 18.8611 46.5902 18.7059V18.7059ZM41.4602 19.7043H38.2946V19.0831H41.3803V18.4621H38.2946V17.8851H41.4602V17.2418H36.9719V20.3476H41.4602V19.7043ZM35.5288 17.3971C35.0878 17.264 34.5669 17.2416 33.8856 17.2416H30.8V20.3475H32.1623V19.2161H33.6053C34.0858 19.2161 34.3668 19.2384 34.5672 19.3492C34.8078 19.5044 34.8078 19.7708 34.8078 19.9705V20.3475H36.1299V19.7484C36.1299 19.4601 36.0901 19.3269 35.9298 19.1717C35.8095 19.0828 35.5695 18.9719 35.2488 18.9054C35.609 18.8391 36.2107 18.5728 36.2107 18.0845C36.2104 17.7297 35.9699 17.53 35.5288 17.3971V17.3971ZM27.9142 17.2416H23.6258L21.9025 18.2622L20.2593 17.2416H14.8489V20.3475H20.1794L21.9027 19.3269L23.5459 20.3475H26.1511V19.305H27.8343C28.9964 19.305 30.1591 19.1275 30.1591 18.2622C30.1588 17.4192 28.9563 17.2416 27.9142 17.2416ZM34.4466 18.5286C34.2465 18.5728 34.046 18.5728 33.8055 18.5728L32.1623 18.5951V17.8849H33.8055C34.046 17.8849 34.2866 17.8849 34.4466 17.9515C34.6073 17.9961 34.727 18.0847 34.727 18.2178C34.727 18.351 34.6073 18.462 34.4466 18.5286V18.5286ZM27.9142 18.6837H26.1508V17.8849H27.9142C28.3953 17.8849 28.7158 17.9961 28.7158 18.2622C28.7158 18.5286 28.3951 18.6837 27.9142 18.6837ZM22.7441 18.7946L24.828 17.5745V20.0815L22.7441 18.7946ZM19.4978 19.7043H16.1713V19.0831H19.137V18.4621H16.1713V17.8851H19.5379L21.0207 18.7947L19.4978 19.7043V19.7043ZM48.5138 15.0009H46.5902L44.0653 12.6713V15.0009H41.3405L40.819 14.313H38.0137L37.4928 15.0009H35.9295C35.2883 15.0009 34.4466 14.9121 33.9661 14.6458C33.5251 14.3796 33.2846 14.0246 33.2846 13.47C33.2846 13.004 33.4048 12.5825 34.0056 12.2498C34.4063 12.0056 35.1279 11.8948 36.0495 11.8948H37.3318V12.5605H36.0495C35.5689 12.5605 35.288 12.6049 35.0076 12.738C34.7671 12.8712 34.6468 13.1152 34.6468 13.4479C34.6468 13.7807 34.7671 14.0248 35.0076 14.1802C35.2078 14.291 35.5689 14.3354 35.9292 14.3354H36.5306L38.4541 11.895H40.4581L42.7024 14.8235V11.8948H44.7866L47.1512 14.0468V11.8948H48.5135V15.0009H48.5138V15.0009ZM32.6033 11.8948H31.241V15.0009H32.6033V11.8948V11.8948ZM29.7576 12.028C29.3166 11.8948 28.8361 11.8948 28.1548 11.8948H25.0686V15.0009H26.391V13.8693H27.8338C28.3149 13.8693 28.6356 13.8915 28.8358 14.0025C29.0763 14.1578 29.036 14.4241 29.036 14.6015V15.0009H30.3982V14.3796C30.3982 14.1134 30.3584 13.9803 30.1582 13.8249C30.038 13.7361 29.7974 13.6252 29.5171 13.5587C29.8773 13.47 30.479 13.226 30.479 12.7379C30.4793 12.3829 30.1983 12.1832 29.7576 12.028ZM24.1067 14.3576H20.9806V13.7363H24.0666V13.093H20.9806V12.5383H24.1067V11.895H19.6181V15.001H24.1067V14.3576ZM18.6161 11.8948H16.4119L14.7687 14.0025L13.0052 11.8948H10.8411V14.8233L8.55671 11.8948H6.55298L4.14832 15.0009H5.59106L6.11196 14.313H8.91725L9.43816 15.0009H12.1636V12.5605L14.1272 15.0009H15.2893L17.2532 12.5605V15.0009H18.6158V11.8948H18.6161ZM40.3384 13.6475L39.4163 12.4273L38.4948 13.6475H40.3384ZM28.7158 13.1596C28.5156 13.2261 28.3152 13.2261 28.0345 13.2261H26.391V12.5385H28.0342C28.2748 12.5385 28.5548 12.5385 28.7155 12.5828C28.8756 12.6494 28.9561 12.7382 28.9561 12.8712C28.9561 13.0042 28.8759 13.115 28.7158 13.1596V13.1596ZM6.59278 13.6475L7.51461 12.4273L8.43644 13.6475H6.59278V13.6475ZM51.9207 2.15527H4.10794V13.337L5.75113 11.2737H9.2377L9.7188 11.784V11.2737H13.8067L14.7286 12.3829L15.6103 11.2737H28.6356C29.2364 11.2737 29.7573 11.3403 30.1585 11.5177V11.2737H33.7253V11.5177C34.3261 11.3402 35.0875 11.2737 35.9696 11.2737H41.1394L41.6205 11.784V11.2737H45.4278L45.9891 11.784V11.2737H49.7159V15.6221H45.949L45.2279 14.9566V15.6221H40.5386L40.0177 14.9122H38.855L38.3341 15.6221H35.8897C34.9278 15.6221 34.2061 15.489 33.7256 15.356V15.6221H27.9142V14.6237C27.9142 14.4906 27.8742 14.4684 27.7138 14.4684H27.5136V15.622H16.2916V15.0673L15.891 15.622H13.5264L13.1258 15.0895V15.622H8.5968L8.11599 14.9121H6.95361L6.4327 15.622H4.10794V28.7339H51.9207V20.769C51.3998 20.9022 50.6782 20.9688 49.9568 20.9688H46.4699V20.7024C46.0693 20.8801 45.3476 20.9688 44.6667 20.9688H33.6852V19.9705C33.6852 19.8373 33.6454 19.8373 33.4446 19.8373H33.2445V20.9688H29.6373V19.793C29.0365 19.9482 28.355 19.9482 27.7539 19.9482H27.353V20.9688H22.9446L21.9027 20.3031L20.7407 20.9688H13.6464V16.6205H20.8604L21.9025 17.2859L23.0247 16.6205H27.8742C28.4349 16.6205 29.357 16.6648 29.7576 16.8865V16.6205H34.0858C34.5268 16.6205 35.3688 16.6648 35.9295 16.8865V16.6205H42.4622V16.8867C42.823 16.7091 43.5046 16.6207 44.1054 16.6207H47.7523V16.8867C48.1535 16.7315 48.7142 16.6207 49.4359 16.6207H51.9207V2.15527V2.15527Z" fill="#354050"/>
</g>
<defs>
<clipPath id="clip0_1310_530">
<rect width="56" height="31" fill="white"/>
</clipPath>
</defs>
</svg>
